# File created by Blade
# Date/Time:  Tue Jan 27 18:50:13 2015
#---------------------------------------------------------
:version 1.10
:name HOM
:units
  mass 1.0
  length 1.000000
  angle deg
:documentation
     Acclaim Skeleton File
:root
   axis xyz
   order TX TY TZ RX RY RZ
   position 0.000000 0.000000 0.000000
   orientation 0 0 0
:bonedata
   begin
      id 1
      name Spine_dum
      direction 0.000000 1.000000 0.000000
      length 5.195262
      axis 0.0 0.0 0.0 xyz
   end
   begin
      id 2
      name LeftUpLeg_dum
      direction 1.000000 0.000000 0.000000
      length 3.351363
      axis 0.0 0.0 0.0 xyz
   end
   begin
      id 3
      name RightUpLeg_dum
      direction -1.000000 0.000000 0.000000
      length 3.351363
      axis 0.0 0.0 0.0 xyz
   end
   begin
      id 4
      name Spine
      direction 0.000000 1.000000 0.000000
      length 0.000000
      axis 0.0 0.0 0.0 xyz
      dof rx ry rz
   end
   begin
      id 5
      name Spine_dum1
      direction 0.000000 1.000000 0.000000
      length 15.653875
      axis 0.0 0.0 0.0 xyz
   end
   begin
      id 6
      name Spine_dum2
      direction 0.000000 1.000000 0.000000
      length 10.329768
      axis 0.0 0.0 0.0 xyz
   end
   begin
      id 7
      name Spine_dum3
      direction 0.000000 1.000000 0.000000
      length 10.329768
      axis 0.0 0.0 0.0 xyz
   end
   begin
      id 8
      name Head
      direction 0.000000 1.000000 0.000000
      length 4.527550
      axis 0.0 0.0 0.0 xyz
      dof rx ry rz
   end
   begin
      id 9
      name LeftShoulder
      direction 1.000000 0.000000 0.000000
      length 6.996006
      axis 0.0 0.0 -90.0 xyz
      dof rx ry rz
   end
   begin
      id 10
      name LeftArm
      direction 1.000000 0.000000 0.000000
      length 10.209302
      axis 0.0 0.0 -90.0 xyz
      dof rx ry rz
   end
   begin
      id 11
      name LeftForeArm
      direction 1.000000 0.000000 0.000000
      length 8.563163
      axis 0.0 0.0 -90.0 xyz
      dof ry rz rx
   end
   begin
      id 12
      name LeftHand
      direction 0.000000 0.000000 0.000000
      length 0.000000
      axis 0.0 0.0 -90.0 xyz
      dof rx ry rz
   end
   begin
      id 13
      name LeftHand_dum1
      direction 0.000000 0.000000 0.000000
      length 0.000000
      axis 0.0 0.0 -90.0 xyz
   end
   begin
      id 14
      name LeftHand_dum2
      direction 1.000000 0.000000 0.000000
      length 3.937000
      axis 0.0 0.0 -90.0 xyz
   end
   begin
      id 15
      name LeftHandThumb1
      direction 0.000000 0.000000 1.000000
      length 3.937000
      axis 0.0 0.0 -90.0 xyz
      dof rx rz ry
   end
   begin
      id 16
      name RightShoulder
      direction -1.000000 0.000000 0.000000
      length 6.996006
      axis 0.0 0.0 90.0 xyz
      dof rx ry rz
   end
   begin
      id 17
      name RightArm
      direction -1.000000 0.000000 0.000000
      length 10.209302
      axis 0.0 0.0 90.0 xyz
      dof rx ry rz
   end
   begin
      id 18
      name RightForeArm
      direction -1.000000 0.000000 0.000000
      length 8.563163
      axis 0.0 0.0 90.0 xyz
      dof ry rz rx
   end
   begin
      id 19
      name RightHand
      direction 0.000000 0.000000 0.000000
      length 0.000000
      axis 0.0 0.0 90.0 xyz
      dof rx ry rz
   end
   begin
      id 20
      name RightHand_dum1
      direction 0.000000 0.000000 0.000000
      length 0.000000
      axis 0.0 0.0 90.0 xyz
   end
   begin
      id 21
      name RightHand_dum2
      direction -1.000000 0.000000 0.000000
      length 3.937000
      axis 0.0 0.0 90.0 xyz
   end
   begin
      id 22
      name RightHandThumb1
      direction 0.000000 0.000000 1.000000
      length 3.937000
      axis 0.0 0.0 90.0 xyz
      dof rx rz ry
   end
   begin
      id 23
      name LeftUpLeg
      direction 0.000000 -1.000000 0.000000
      length 16.346831
      axis 0.0 0.0 0.0 xyz
      dof rx ry rz
   end
   begin
      id 24
      name LeftLeg
      direction 0.000000 -1.000000 0.000000
      length 13.959795
      axis 0.0 0.0 0.0 xyz
      dof rx ry rz
   end
   begin
      id 25
      name LeftFoot
      direction 0.000000 -0.258819 0.965926
      length 5.165550
      axis 15.0 0.0 0.0 xyz
      dof rx ry rz
   end
   begin
      id 26
      name LeftToeBase
      direction 0.000000 0.000000 1.000000
      length 2.952750
      axis 0.0 0.0 0.0 xyz
      dof rx ry rz
   end
   begin
      id 27
      name RightUpLeg
      direction 0.000000 -1.000000 0.000000
      length 16.346831
      axis 0.0 0.0 0.0 xyz
      dof rx ry rz
   end
   begin
      id 28
      name RightLeg
      direction 0.000000 -1.000000 0.000000
      length 13.959795
      axis 0.0 0.0 0.0 xyz
      dof rx ry rz
   end
   begin
      id 29
      name RightFoot
      direction 0.000000 -0.258819 0.965926
      length 5.165550
      axis 15.0 0.0 0.0 xyz
      dof rx ry rz
   end
   begin
      id 30
      name RightToeBase
      direction 0.000000 0.000000 1.000000
      length 2.952750
      axis 0.0 0.0 0.0 xyz
      dof rx ry rz
   end
:hierarchy
   begin
      root Spine_dum LeftUpLeg_dum RightUpLeg_dum
      Spine_dum Spine
      LeftUpLeg_dum LeftUpLeg
      RightUpLeg_dum RightUpLeg
      Spine Spine_dum1 Spine_dum2 Spine_dum3
      Spine_dum1 Head
      Spine_dum2 LeftShoulder
      Spine_dum3 RightShoulder
      LeftShoulder LeftArm
      LeftArm LeftForeArm
      LeftForeArm LeftHand
      LeftHand LeftHand_dum1 LeftHand_dum2
      LeftHand_dum1 LeftHandThumb1
      RightShoulder RightArm
      RightArm RightForeArm
      RightForeArm RightHand
      RightHand RightHand_dum1 RightHand_dum2
      RightHand_dum1 RightHandThumb1
      LeftUpLeg LeftLeg
      LeftLeg LeftFoot
      LeftFoot LeftToeBase
      RightUpLeg RightLeg
      RightLeg RightFoot
      RightFoot RightToeBase
   end

# File created by Blade
# Date/Time:  Tue Jan 27 18:50:05 2015
# Frame Rate: 120.000 fps
#------------------------------------------------------
:FULLY-SPECIFIED
:DEGREES
1336
root -0.697046 31.856374 -6.288771 -1.851616 2.846587 -12.878893
Spine 8.310937 -8.598704 3.894039
Head 8.127874 -16.055182 10.906075
LeftShoulder -15.165105 17.271768 15.183243
LeftArm 13.668402 -24.403706 -69.656179
LeftForeArm -6.556683 -0.000000 124.980458
LeftHand -17.404908 0.000000 22.872447
LeftHandThumb1 -26.253704 0.000000 33.147579
RightShoulder -14.244406 -5.508861 -6.284620
RightArm 11.919867 -26.508419 70.341300
RightForeArm -29.654223 -0.000000 29.281803
RightHand -14.444002 -0.000000 11.130844
RightHandThumb1 -24.326973 -0.000000 -32.862282
LeftUpLeg -5.599598 12.157235 1.405833
LeftLeg 23.037774 -0.000000 -0.000000
LeftFoot -33.712209 23.185692 -23.635027
LeftToeBase 8.072356 -0.000000 -0.000000
RightUpLeg -75.707086 -13.995022 9.821608
RightLeg 90.642271 -0.000000 -0.000000
RightFoot -16.098450 -20.029985 20.076585
RightToeBase 8.829896 -0.000000 -0.000000
1337
root -0.687055 31.852140 -6.294649 -1.813382 2.620597 -12.869028
Spine 8.340526 -8.538682 3.857898
Head 7.993783 -16.326462 10.909525
LeftShoulder -15.159240 17.385193 15.218497
LeftArm 13.560076 -24.298167 -69.672910
LeftForeArm -6.803416 -0.000000 125.252842
LeftHand -17.211197 -0.000000 22.910991
LeftHandThumb1 -26.253704 0.000000 33.147579
RightShoulder -14.243817 -5.478791 -6.350873
RightArm 12.044087 -26.361964 70.227473
RightForeArm -29.722375 -0.000000 29.378500
RightHand -14.495358 0.000000 11.183768
RightHandThumb1 -24.326973 -0.000000 -32.862282
LeftUpLeg -5.566844 12.170427 1.356897
LeftLeg 22.925099 -0.000000 -0.000000
LeftFoot -33.835949 23.368494 -23.720006
LeftToeBase 8.152573 -0.000000 -0.000000
RightUpLeg -75.693539 -14.383525 9.973105
RightLeg 90.558550 -0.000000 -0.000000
RightFoot -16.145946 -20.169868 20.121495
RightToeBase 8.916221 -0.000000 -0.000000
1338
root -0.674871 31.846135 -6.305440 -1.742821 2.393939 -12.846239
Spine 8.347788 -8.496747 3.817065
Head 7.836641 -16.537267 10.916698
LeftShoulder -15.183715 17.509874 15.272989
LeftArm 13.456893 -24.205198 -69.764113
LeftForeArm -6.902557 -0.000000 125.516358
LeftHand -17.036032 -0.000000 22.751769
LeftHandThumb1 -26.253704 0.000000 33.147579
RightShoulder -14.202720 -5.418918 -6.447765
RightArm 12.119832 -26.172419 70.167296
RightForeArm -29.791258 0.000000 29.508499
RightHand -14.585491 0.000000 11.045950
RightHandThumb1 -24.326973 -0.000000 -32.862282
LeftUpLeg -5.597690 12.183678 1.279033
LeftLeg 22.857822 -0.000000 -0.000000
LeftFoot -34.002760 23.546191 -23.878073
LeftToeBase 8.299213 -0.000000 -0.000000
RightUpLeg -75.746962 -14.800260 10.148985
RightLeg 90.495388 -0.000000 -0.000000
RightFoot -16.100943 -20.385808 20.051308
RightToeBase 8.874670 -0.000000 -0.000000
1339
root -0.664052 31.841823 -6.313620 -1.682360 2.202436 -12.852801
Spine 8.356809 -8.478823 3.801392
Head 7.697347 -16.742472 10.930462
LeftShoulder -15.189367 17.588997 15.349129
LeftArm 13.321289 -24.116732 -69.893579
LeftForeArm -6.826781 -0.000000 125.784652
LeftHand -17.021543 -0.000000 22.748285
LeftHandThumb1 -26.253704 0.000000 33.147579
RightShoulder -14.170209 -5.339771 -6.528542
RightArm 12.186690 -26.013640 70.090053
RightForeArm -29.849042 -0.000000 29.610732
RightHand -14.584246 0.000000 11.224726
RightHandThumb1 -24.326973 -0.000000 -32.862282
LeftUpLeg -5.631415 12.228241 1.244695
LeftLeg 22.822713 -0.000000 -0.000000
LeftFoot -34.111530 23.651910 -23.968303
LeftToeBase 8.304248 -0.000000 -0.000000
RightUpLeg -75.799487 -15.271295 10.362128
RightLeg 90.445155 -0.000000 -0.000000
RightFoot -16.068194 -20.615872 19.964022
RightToeBase 8.990597 -0.000000 -0.000000
1340
root -0.651903 31.837648 -6.321722 -1.617118 2.027903 -12.862110
Spine 8.351201 -8.460095 3.817063
Head 7.576773 -16.976097 10.878707
LeftShoulder -15.156167 17.686423 15.394440
LeftArm 13.253081 -24.153260 -70.118716
LeftForeArm -6.617740 -0.000000 126.005196
LeftHand -17.080604 -0.000000 22.639935
LeftHandThumb1 -26.253704 0.000000 33.147579
RightShoulder -14.163228 -5.278156 -6.604658
RightArm 12.304770 -25.852280 69.987210
RightForeArm -29.782506 0.000000 29.658256
RightHand -14.609424 0.000000 10.991748
RightHandThumb1 -24.326973 -0.000000 -32.862282
LeftUpLeg -5.678475 12.259974 1.217533
LeftLeg 22.798835 -0.000000 -0.000000
LeftFoot -34.348944 23.656174 -24.264209
LeftToeBase 8.648866 -0.000000 -0.000000
RightUpLeg -75.879432 -15.777152 10.596064
RightLeg 90.424379 -0.000000 -0.000000
RightFoot -16.047342 -20.774351 20.007374
RightToeBase 9.134491 -0.000000 -0.000000
1341
root -0.634378 31.831967 -6.336597 -1.516342 1.893104 -12.895513
Spine 8.340164 -8.521180 3.896327
Head 7.386268 -17.133467 10.788076
LeftShoulder -15.203255 17.725177 15.376784
LeftArm 13.182400 -24.198096 -70.318503
LeftForeArm -6.488592 -0.000000 126.175343
LeftHand -17.063464 -0.000000 22.664723
LeftHandThumb1 -26.253704 0.000000 33.147579
RightShoulder -14.116062 -5.206249 -6.716368
RightArm 12.434144 -25.692468 69.882128
RightForeArm -29.598232 0.000000 29.749833
RightHand -14.916569 -0.000000 10.207051
RightHandThumb1 -24.326973 -0.000000 -32.862282
LeftUpLeg -5.811357 12.296437 1.188978
LeftLeg 22.846897 -0.000000 -0.000000
LeftFoot -34.449858 23.718307 -24.334201
LeftToeBase 8.676978 -0.000000 -0.000000
RightUpLeg -76.033461 -16.348553 10.891903
RightLeg 90.388136 -0.000000 -0.000000
RightFoot -15.970639 -21.012780 19.933444
RightToeBase 9.227208 -0.000000 -0.000000
1342
root -0.620369 31.826489 -6.350923 -1.383738 1.741618 -12.876196
Spine 8.290801 -8.528389 3.899909
Head 7.206183 -17.309063 10.751662
LeftShoulder -15.198259 17.738217 15.386987
LeftArm 13.096098 -24.349305 -70.530062
LeftForeArm -6.397071 -0.000000 126.323040
LeftHand -17.102245 -0.000000 22.700369
LeftHandThumb1 -26.253704 0.000000 33.147579
RightShoulder -14.079732 -5.101089 -6.812931
RightArm 12.454709 -25.541663 69.845335
RightForeArm -29.779132 -0.000000 29.863114
RightHand -14.661986 0.000000 10.817741
RightHandThumb1 -24.326973 -0.000000 -32.862282
LeftUpLeg -5.969587 12.403130 1.112842
LeftLeg 22.888824 -0.000000 -0.000000
LeftFoot -34.507055 23.741816 -24.385647
LeftToeBase 8.667326 -0.000000 -0.000000
RightUpLeg -76.222522 -16.847781 11.125590
RightLeg 90.379040 -0.000000 -0.000000
RightFoot -15.971325 -21.183955 20.032851
RightToeBase 9.166164 -0.000000 -0.000000
1343
root -0.603630 31.820549 -6.361292 -1.270263 1.626383 -12.834287
Spine 8.253677 -8.562974 3.883312
Head 7.029354 -17.485982 10.709744
LeftShoulder -15.233886 17.755517 15.373256
LeftArm 13.074832 -24.499603 -70.755746
LeftForeArm -6.264929 -0.000000 126.404157
LeftHand -17.107616 -0.000000 22.690183
LeftHandThumb1 -26.253704 0.000000 33.147579
RightShoulder -14.028710 -4.981207 -6.884062
RightArm 12.464028 -25.320300 69.782646
RightForeArm -29.723337 0.000000 29.985210
RightHand -14.835514 -0.000000 10.559380
RightHandThumb1 -24.326973 -0.000000 -32.862282
LeftUpLeg -6.108101 12.534302 1.018438
LeftLeg 22.933090 -0.000000 -0.000000
LeftFoot -34.502629 23.791234 -24.343408
LeftToeBase 8.028860 -0.000000 -0.000000
RightUpLeg -76.475418 -17.508032 11.428377
RightLeg 90.440124 -0.000000 -0.000000
RightFoot -15.968147 -21.310612 20.099583
RightToeBase 9.357060 -0.000000 -0.000000
